<?xml version="1.0" encoding="iso-8859-1"?>
<!-- Generator: Adobe Illustrator 19.0.0, SVG Export Plug-In . SVG Version: 6.00 Build 0)  -->
<svg version="1.1" id="Capa_1" xmlns="http://www.w3.org/2000/svg" xmlns:xlink="http://www.w3.org/1999/xlink" x="0px" y="0px"
	 viewBox="0 0 422.14 422.14" style="enable-background:new 0 0 422.14 422.14;" xml:space="preserve">
<g>
	<g>
		<g>
			<path style="fill:#D4E1F4;" d="M370.939,91.43v299.363c0,17.312-14.035,31.347-31.347,31.347H82.547
				c-17.312,0-31.347-14.035-31.347-31.347V91.43c0-17.312,14.034-31.347,31.347-31.347h51.2v36.571H287.87V60.083h51.722
				C356.905,60.083,370.939,74.117,370.939,91.43z"/>
			<path style="fill:#00CEB4;" d="M287.87,60.083v36.571H133.747V31.348h38.139c3.926-18.232,20.012-31.274,38.661-31.347
				c18.721-0.129,34.917,13.004,38.661,31.347h38.661V60.083z"/>
		</g>
		<g>
			<path style="fill:#083863;" d="M122.776,281.601c-2.782,0.089-5.46-1.059-7.314-3.135l-21.42-21.943
				c-4.047-4.24-4.047-10.911,0-15.151c4.204-3.841,10.709-3.609,14.629,0.522l14.106,14.629l33.437-31.869
				c4.204-3.841,10.709-3.609,14.629,0.522c4.04,3.706,4.31,9.986,0.603,14.025c-0.192,0.21-0.394,0.411-0.603,0.603l-40.751,38.661
				C128.161,280.435,125.532,281.562,122.776,281.601z"/>
			<path style="fill:#083863;" d="M320.784,268.54H200.621c-5.771,0-10.449-4.678-10.449-10.449s4.678-10.449,10.449-10.449h120.163
				c5.771,0,10.449,4.678,10.449,10.449S326.555,268.54,320.784,268.54z"/>
			<path style="fill:#083863;" d="M320.784,184.948H200.621c-5.771,0-10.449-4.678-10.449-10.449
				c0-5.771,4.678-10.449,10.449-10.449h120.163c5.771,0,10.449,4.678,10.449,10.449
				C331.233,180.27,326.555,184.948,320.784,184.948z"/>
			<path style="fill:#083863;" d="M122.776,365.193c-2.782,0.089-5.46-1.059-7.314-3.135l-21.42-21.943
				c-4.047-4.24-4.047-10.911,0-15.151c4.204-3.841,10.709-3.609,14.629,0.522l14.106,14.629l33.437-31.869
				c4.204-3.841,10.709-3.609,14.629,0.522c4.04,3.706,4.31,9.986,0.603,14.025c-0.192,0.21-0.394,0.411-0.603,0.603l-40.751,38.661
				C128.161,364.027,125.532,365.154,122.776,365.193z"/>
			<path style="fill:#083863;" d="M320.784,352.132H200.621c-5.771,0-10.449-4.678-10.449-10.449s4.678-10.449,10.449-10.449
				h120.163c5.771,0,10.449,4.678,10.449,10.449S326.555,352.132,320.784,352.132z"/>
		</g>
	</g>
	<rect x="99.266" y="145.242" style="fill:#00ACEA;" width="62.171" height="56.79"/>
</g>
<g>
</g>
<g>
</g>
<g>
</g>
<g>
</g>
<g>
</g>
<g>
</g>
<g>
</g>
<g>
</g>
<g>
</g>
<g>
</g>
<g>
</g>
<g>
</g>
<g>
</g>
<g>
</g>
<g>
</g>
</svg>
